<svg xmlns="http://www.w3.org/2000/svg" fill-rule="evenodd" viewBox="0 0 100 100">
    <path d="M86.009 46.891a1.5 1.5 0 0 0-2.119.101L71.303 60.838l-6.252-6.14a1.497 1.497 0 0 0-2.121.02 1.498 1.498 0 0 0 .02 2.121l7.365 7.232c.281.276.658.43 1.051.43h.042a1.5 1.5 0 0 0 1.067-.491l13.635-15a1.5 1.5 0 0 0-.101-2.119zm-11.39 38.587 8.398-8.418a1.501 1.501 0 0 0-2.124-2.12L72.5 83.353l-8.392-8.413a1.5 1.5 0 1 0-2.124 2.12l8.397 8.418-8.443 8.463a1.501 1.501 0 0 0 2.124 2.12l8.438-8.458 8.438 8.458a1.499 1.499 0 0 0 2.122.002 1.501 1.501 0 0 0 .002-2.122l-8.443-8.463zM56.5 59.5a1.5 1.5 0 1 0 0-3c-3.584 0-6.5 3.161-6.5 7.045v16.909c0 3.885 2.916 7.045 6.5 7.045a1.5 1.5 0 1 0 0-3c-1.93 0-3.5-1.815-3.5-4.045V63.545c0-2.23 1.57-4.045 3.5-4.045z"/>
    <path d="M42.5 79.893H7.535c.78-16.676 14.507-30 31.27-30 4.743 0 9.299 1.041 13.542 3.093a1.5 1.5 0 1 0 1.307-2.701 33.838 33.838 0 0 0-14.849-3.392C19.889 46.893 4.5 62.37 4.5 81.393a1.5 1.5 0 0 0 1.5 1.5h36.5a1.5 1.5 0 1 0 0-3zM39.496 2.5c-11.025 0-19.996 8.972-19.996 20s8.97 20 19.996 20c11.03 0 20.004-8.972 20.004-20s-8.974-20-20.004-20zm0 37c-9.372 0-16.996-7.626-16.996-17s7.624-17 16.996-17c9.376 0 17.004 7.626 17.004 17s-7.628 17-17.004 17z"/>
</svg>
