<svg xmlns="http://www.w3.org/2000/svg" fill-rule="evenodd" viewBox="0 0 100 100">
    <path d="M78.528 60.893a1.502 1.502 0 0 0-2.02.65L64.696 84.582a1.501 1.501 0 0 0 2.67 1.37l11.812-23.039a1.499 1.499 0 0 0-.65-2.02zm20.32 11.552L86.335 59.963a1.501 1.501 0 0 0-2.119 2.124l11.448 11.42-11.448 11.42a1.5 1.5 0 1 0 2.12 2.124l12.513-12.482a1.5 1.5 0 0 0-.001-2.124zM58.571 59.966a1.5 1.5 0 0 0-2.121-.002L43.94 72.446a1.502 1.502 0 0 0 0 2.124l12.51 12.482c.293.292.676.438 1.06.438a1.5 1.5 0 0 0 1.06-2.562l-11.445-11.42 11.445-11.42a1.501 1.501 0 0 0 .001-2.122zM35.5 77.893H5.796c.776-14.224 12.521-25.558 26.848-25.558 4.074 0 7.987.894 11.631 2.656a1.5 1.5 0 0 0 1.307-2.7 29.475 29.475 0 0 0-12.938-2.956c-16.48 0-29.889 13.484-29.889 30.058a1.5 1.5 0 0 0 1.5 1.5H35.5a1.5 1.5 0 1 0 0-3zm-2.259-31.981c9.657 0 17.514-7.855 17.514-17.51 0-9.654-7.856-17.509-17.514-17.509-9.652 0-17.506 7.854-17.506 17.509 0 9.655 7.854 17.51 17.506 17.51zm0-32.019c8.003 0 14.514 6.509 14.514 14.509 0 8.001-6.511 14.51-14.514 14.51-7.999 0-14.506-6.509-14.506-14.51 0-8 6.507-14.509 14.506-14.509z"/>
</svg>
